<svg width="54" height="52" viewBox="0 0 54 52" xmlns="http://www.w3.org/2000/svg" xmlns:xlink="http://www.w3.org/1999/xlink"><title>addbtn</title><defs><path d="M50.915 32.437c-.779 9.012-11.158 16.147-23.848 16.147-12.7 0-23.086-7.146-23.85-16.167l-.097.037.052-.95a12.691 12.691 0 0 1 .093-1.693L4.732 3.08 17.32 15.609c2.977-.96 6.275-1.494 9.747-1.494 3.457 0 6.743.53 9.71 1.482L49.352 3.084l1.437 26.178a12.63 12.63 0 0 1 .153 2.796l.022.398-.049-.019z" id="a"/><filter x="-15.4%" y="-9.3%" width="130.8%" height="120.9%" filterUnits="objectBoundingBox" id="b"><feOffset dy=".5" in="SourceAlpha" result="shadowOffsetOuter1"/><feGaussianBlur stdDeviation="1.5" in="shadowOffsetOuter1" result="shadowBlurOuter1"/><feColorMatrix values="0 0 0 0 0 0 0 0 0 0 0 0 0 0 0 0 0 0 0.5 0" in="shadowBlurOuter1"/></filter><text id="e" font-family="StardosStencil-Bold, Stardos Stencil" font-size="21" font-weight="bold" letter-spacing="-.06" fill-opacity=".95" fill="#FBFAFA"><tspan x="8" y="37">Add</tspan></text><filter x="-6.6%" y="-6.9%" width="113.2%" height="117.2%" filterUnits="objectBoundingBox" id="d"><feOffset dy=".5" in="SourceAlpha" result="shadowOffsetOuter1"/><feGaussianBlur stdDeviation=".75" in="shadowOffsetOuter1" result="shadowBlurOuter1"/><feColorMatrix values="0 0 0 0 0 0 0 0 0 0 0 0 0 0 0 0 0 0 0.187415082 0" in="shadowBlurOuter1"/></filter></defs><g fill="none" fill-rule="evenodd"><mask id="c" fill="#fff"><use xlink:href="#a"/></mask><use fill="#000" filter="url(#b)" xlink:href="#a"/><use fill="#0AAAB4" xlink:href="#a"/><g mask="url(#c)" fill-opacity=".95" fill="#FBFAFA"><use filter="url(#d)" xlink:href="#e"/><use xlink:href="#e"/></g></g></svg>