<?xml version="1.0" encoding="UTF-8"?>
<svg width="200px" height="200px" viewBox="0 0 200 200" version="1.1" xmlns="http://www.w3.org/2000/svg" xmlns:xlink="http://www.w3.org/1999/xlink">
    <!-- Generator: Sketch 42 (36781) - http://www.bohemiancoding.com/sketch -->
    <title>speech</title>
    <desc>Created with Sketch.</desc>
    <defs>
        <path d="M0,8.005588 C0,3.58422384 3.5858315,0 8.00523497,0 L185.451305,0 C189.872474,0 193.45654,3.58526824 193.45654,8.00049217 L193.45654,150.319954 C193.45654,154.738504 193.45654,161.896431 193.45654,166.314595 C193.45654,166.314595 193.45654,165.393256 193.45654,168.512642 C193.45654,171.632029 199.186049,196.82365 200,200 C198.740428,200 191.223807,194.094824 183.471494,189.512642 C175.719182,184.930461 175.501563,184.930461 168.423163,184.930461 L8.00017646,184.930461 C3.58180101,184.930461 0,181.339917 0,176.924873 L0,8.005588 Z" id="path-1"></path>
        <mask id="mask-2" maskContentUnits="userSpaceOnUse" maskUnits="objectBoundingBox" x="0" y="0" width="200" height="200" fill="white">
            <use xlink:href="#path-1"></use>
        </mask>
    </defs>
    <g id="Page-1" stroke="none" stroke-width="1" fill="none" fill-rule="evenodd" fill-opacity="0.85">
        <g id="200" stroke="#4A4A4A" stroke-width="2" fill="#D8D8D8">
            <use id="speech" mask="url(#mask-2)" xlink:href="#path-1"></use>
        </g>
    </g>
</svg>